<svg width="173" height="158" viewBox="0 0 173 158" fill="none" xmlns="http://www.w3.org/2000/svg">
<g filter="url(#filter0_f_129_10)">
<path d="M160.808 80.3182C170.089 49.2285 156.941 33.3357 149.207 29.2755C141.783 36.6999 139.927 48.6098 139.927 53.6368C139.927 57.1751 137.728 64.261 135.008 71.6177M135.008 71.6177C132.377 78.7327 129.257 86.101 127.166 90.7588C119.278 98.6472 110.732 122.66 107.445 133.681C97.2366 140.177 74.9635 145.668 65.1029 147.602C65.1029 142.033 75.1568 136.001 80.1837 133.681C76.4715 135.073 72.0633 128.847 70.3232 125.561C45.2659 137.161 30.4945 118.02 26.241 107C23.9209 100.503 20.6339 112.413 19.2805 119.18C13.7121 123.356 10.7733 108.933 10 101.199C10.928 96.5591 28.9478 99.2659 37.8416 101.199C35.5216 94.703 31.0747 91.5321 29.1412 90.7588C22.1808 84.7264 24.3076 70.8444 26.241 64.6574C21.6008 46.0964 32.0413 33.3357 37.8416 29.2755C45.962 30.0489 63.4788 31.3637 68.5831 30.4356M135.008 71.6177C138.194 60.2105 142.131 34.9598 132.387 25.2153C130.453 21.9284 125.194 14.6587 119.626 11.8746C112.279 9.16775 97.2366 6.65428 95.8446 18.2549C95.4579 18.0616 94.6845 17.0949 94.6845 14.7748C91.7844 15.5481 85.172 18.487 81.9238 24.0553M81.9238 24.0553C71.0966 28.1155 49.4421 41.1082 49.4421 60.5972C49.4421 67.5576 53.6183 81.8263 70.3232 83.2184C77.2836 78.9649 92.1324 69.8777 95.8446 67.5576C89.2709 76.0647 73.5714 92.6148 63.3628 90.7588M81.9238 24.0553C81.9238 24.0553 90.9849 26.0984 95.8446 29.2755C100.403 32.2555 105.705 39.1361 105.705 39.1361L113.826 35.0758M70.3232 90.7588C76.7035 92.8856 92.1324 96.3271 102.805 93.0789L95.8446 109.9C88.8842 110.286 74.4994 110.248 72.6433 107C70.3232 101.779 64.6389 91.6868 60.4627 93.0789C56.7892 91.1455 49.5581 86.5826 50.0221 83.7984C45.1886 85.1518 35.9856 87.0466 37.8416 83.7984C38.0349 80.7049 39.3496 75.098 43.0618 77.4181M51.1822 107C56.7892 108.214 68.9311 110.494 72.6433 109.9M63.3628 65.8175C69.9365 63.6907 83.6639 58.277 85.984 53.6368M72.6433 46.6765C76.1235 41.2628 83.8959 32.1757 87.1441 39.1361C88.4975 41.7881 90.3923 48.0531 87.1441 51.8967M72.6433 49.5766C74.7701 47.4498 80.1837 44.4723 84.824 49.5766M61.6227 50.7367C66.6497 52.2834 77.6316 54.9129 81.3438 53.0568M66.263 44.3563C68.5831 41.8429 74.0354 37.0479 77.2836 37.976M159.648 82.0583C143.407 92.3055 112.085 115.352 116.726 125.561C116.726 125.561 134.861 119.281 143.407 111.06C152.762 102.061 159.648 82.0583 159.648 82.0583Z" stroke="#249EC5" stroke-opacity="0.45" stroke-width="4"/>
</g>
<path d="M160.808 80.3182C170.089 49.2285 156.941 33.3357 149.207 29.2755C141.783 36.6999 139.927 48.6098 139.927 53.6368C139.927 57.1751 137.728 64.261 135.008 71.6177M135.008 71.6177C132.377 78.7327 129.257 86.101 127.166 90.7588C119.278 98.6472 110.732 122.66 107.445 133.681C97.2366 140.177 74.9635 145.668 65.1029 147.602C65.1029 142.033 75.1568 136.001 80.1837 133.681C76.4715 135.073 72.0633 128.847 70.3232 125.561C45.2659 137.161 30.4945 118.02 26.241 107C23.9209 100.503 20.6339 112.413 19.2805 119.18C13.7121 123.356 10.7733 108.933 10 101.199C10.928 96.5591 28.9478 99.2659 37.8416 101.199C35.5216 94.703 31.0747 91.5321 29.1412 90.7588C22.1808 84.7264 24.3076 70.8444 26.241 64.6574C21.6008 46.0964 32.0413 33.3357 37.8416 29.2755C45.962 30.0489 63.4788 31.3637 68.5831 30.4356M135.008 71.6177C138.194 60.2105 142.131 34.9598 132.387 25.2153C130.453 21.9284 125.194 14.6587 119.626 11.8746C112.279 9.16775 97.2366 6.65428 95.8446 18.2549C95.4579 18.0616 94.6845 17.0949 94.6845 14.7748C91.7844 15.5481 85.172 18.487 81.9238 24.0553M81.9238 24.0553C71.0966 28.1155 49.4421 41.1082 49.4421 60.5972C49.4421 67.5576 53.6183 81.8263 70.3232 83.2184C77.2836 78.9649 92.1324 69.8777 95.8446 67.5576C89.2709 76.0647 73.5714 92.6148 63.3628 90.7588M81.9238 24.0553C81.9238 24.0553 90.9849 26.0984 95.8446 29.2755C100.403 32.2555 105.705 39.1361 105.705 39.1361L113.826 35.0758M70.3232 90.7588C76.7035 92.8856 92.1324 96.3271 102.805 93.0789L95.8446 109.9C88.8842 110.286 74.4994 110.248 72.6433 107C70.3232 101.779 64.6389 91.6868 60.4627 93.0789C56.7892 91.1455 49.5581 86.5826 50.0221 83.7984C45.1886 85.1518 35.9856 87.0466 37.8416 83.7984C38.0349 80.7049 39.3496 75.098 43.0618 77.4181M51.1822 107C56.7892 108.214 68.9311 110.494 72.6433 109.9M63.3628 65.8175C69.9365 63.6907 83.6639 58.277 85.984 53.6368M72.6433 46.6765C76.1235 41.2628 83.8959 32.1757 87.1441 39.1361C88.4975 41.7881 90.3923 48.0531 87.1441 51.8967M72.6433 49.5766C74.7701 47.4498 80.1837 44.4723 84.824 49.5766M61.6227 50.7367C66.6497 52.2834 77.6316 54.9129 81.3438 53.0568M66.263 44.3563C68.5831 41.8429 74.0354 37.0479 77.2836 37.976M159.648 82.0583C143.407 92.3055 112.085 115.352 116.726 125.561C116.726 125.561 134.861 119.281 143.407 111.06C152.762 102.061 159.648 82.0583 159.648 82.0583Z" stroke="#3B8EEF" stroke-opacity="0.3" stroke-width="2"/>
<g filter="url(#filter1_f_129_10)">
<path d="M160.808 80.3182C170.089 49.2285 156.941 33.3357 149.207 29.2755C141.783 36.6999 139.927 48.6098 139.927 53.6368C139.927 57.1751 137.728 64.261 135.008 71.6177M135.008 71.6177C132.377 78.7327 129.257 86.101 127.166 90.7588C119.278 98.6472 110.732 122.66 107.445 133.681C97.2366 140.177 74.9635 145.668 65.1029 147.602C65.1029 142.033 75.1568 136.001 80.1837 133.681C76.4715 135.073 72.0633 128.847 70.3232 125.561C45.2659 137.161 30.4945 118.02 26.241 107C23.9209 100.503 20.6339 112.413 19.2805 119.18C13.7121 123.356 10.7733 108.933 10 101.199C10.928 96.5591 28.9478 99.2659 37.8416 101.199C35.5216 94.703 31.0747 91.5321 29.1412 90.7588C22.1808 84.7264 24.3076 70.8444 26.241 64.6574C21.6008 46.0964 32.0413 33.3357 37.8416 29.2755C45.962 30.0489 63.4788 31.3637 68.5831 30.4356M135.008 71.6177C138.194 60.2105 142.131 34.9598 132.387 25.2153C130.453 21.9284 125.194 14.6587 119.626 11.8746C112.279 9.16775 97.2366 6.65428 95.8446 18.2549C95.4579 18.0616 94.6845 17.0949 94.6845 14.7748C91.7843 15.5481 85.172 18.487 81.9238 24.0553M81.9238 24.0553C71.0966 28.1155 49.4421 41.1082 49.4421 60.5972C49.4421 67.5576 53.6183 81.8263 70.3232 83.2184C77.2836 78.9649 92.1324 69.8777 95.8446 67.5576C89.2709 76.0647 73.5714 92.6148 63.3628 90.7588M81.9238 24.0553C81.9238 24.0553 90.9849 26.0984 95.8446 29.2755C100.403 32.2555 105.705 39.1361 105.705 39.1361L113.826 35.0758M70.3232 90.7588C76.7035 92.8856 92.1324 96.3271 102.805 93.0789L95.8446 109.9C88.8842 110.286 74.4994 110.248 72.6433 107C70.3232 101.779 64.6389 91.6869 60.4627 93.0789C56.7892 91.1455 49.5581 86.5826 50.0221 83.7984C45.1886 85.1518 35.9856 87.0466 37.8416 83.7984C38.0349 80.7049 39.3496 75.098 43.0618 77.4181M51.1822 107C56.7892 108.214 68.9311 110.494 72.6433 109.9M63.3628 65.8175C69.9365 63.6907 83.6639 58.277 85.984 53.6368M72.6433 46.6765C76.1235 41.2628 83.8959 32.1757 87.1441 39.1361C88.4975 41.7881 90.3923 48.0531 87.1441 51.8967M72.6433 49.5766C74.7701 47.4498 80.1837 44.4723 84.824 49.5766M61.6227 50.7367C66.6497 52.2834 77.6316 54.9129 81.3438 53.0568M66.263 44.3563C68.5831 41.8429 74.0354 37.0479 77.2836 37.976M159.648 82.0583C143.407 92.3055 112.085 115.352 116.726 125.561C116.726 125.561 134.861 119.281 143.407 111.06C152.762 102.061 159.648 82.0583 159.648 82.0583Z" stroke="white" stroke-opacity="0.3"/>
</g>
<defs>
<filter id="filter0_f_129_10" x="0.980225" y="0.59668" width="172.016" height="156.436" filterUnits="userSpaceOnUse" color-interpolation-filters="sRGB">
<feFlood flood-opacity="0" result="BackgroundImageFix"/>
<feBlend mode="normal" in="SourceGraphic" in2="BackgroundImageFix" result="shape"/>
<feGaussianBlur stdDeviation="3.5" result="effect1_foregroundBlur_129_10"/>
</filter>
<filter id="filter1_f_129_10" x="8.49512" y="8.09668" width="157.004" height="141.113" filterUnits="userSpaceOnUse" color-interpolation-filters="sRGB">
<feFlood flood-opacity="0" result="BackgroundImageFix"/>
<feBlend mode="normal" in="SourceGraphic" in2="BackgroundImageFix" result="shape"/>
<feGaussianBlur stdDeviation="0.5" result="effect1_foregroundBlur_129_10"/>
</filter>
</defs>
</svg>
