<svg width="24" height="24" viewBox="0 0 24 24" fill="none" xmlns="http://www.w3.org/2000/svg">
<path d="M12.002 21.0419C9.54201 21.0419 9.25201 21.0289 8.29201 20.9869C7.54339 20.9622 6.80445 20.8101 6.10701 20.5369C4.90033 20.0673 3.94615 19.1127 3.47701 17.9059C3.21432 17.2059 3.07263 16.4663 3.05801 15.7189C3.00201 14.7609 3.00201 14.4469 3.00201 12.0059C3.00201 9.53886 3.01501 9.25086 3.05801 8.29586C3.07295 7.54938 3.21464 6.81087 3.47701 6.11186C3.94565 4.90339 4.90137 3.94803 6.11001 3.47986C6.80866 3.21606 7.54736 3.074 8.29401 3.05986C9.24901 3.00586 9.56301 3.00586 12.002 3.00586C14.482 3.00586 14.767 3.01886 15.712 3.05986C16.4606 3.07413 17.2013 3.21617 17.902 3.47986C19.1103 3.94856 20.0659 4.90373 20.535 6.11186C20.8021 6.82105 20.9446 7.57111 20.956 8.32886C21.012 9.28686 21.012 9.59986 21.012 12.0399C21.012 14.4799 20.998 14.7999 20.956 15.7469C20.9411 16.4951 20.7991 17.2353 20.536 17.9359C20.0657 19.1436 19.1101 20.0984 17.902 20.5679C17.2023 20.83 16.4631 20.9717 15.716 20.9869C14.761 21.0419 14.448 21.0419 12.002 21.0419ZM11.968 4.58886C9.52201 4.58886 9.26801 4.60086 8.31301 4.64386C7.743 4.65141 7.17849 4.7566 6.64401 4.95486C5.85477 5.25687 5.23024 5.87885 4.92501 6.66686C4.72523 7.20716 4.62002 7.77784 4.61401 8.35386C4.56101 9.32286 4.56101 9.57686 4.56101 12.0059C4.56101 14.4059 4.57001 14.6969 4.61401 15.6599C4.62297 16.2301 4.72811 16.7947 4.92501 17.3299C5.23069 18.1173 5.85511 18.7389 6.64401 19.0409C7.17813 19.2404 7.74287 19.3457 8.31301 19.3519C9.28101 19.4079 9.53601 19.4079 11.968 19.4079C14.421 19.4079 14.675 19.3959 15.622 19.3519C16.1924 19.3449 16.7574 19.2397 17.292 19.0409C18.0765 18.7362 18.6969 18.1161 19.002 17.3319C19.2014 16.7911 19.3066 16.2202 19.313 15.6439H19.324C19.367 14.6879 19.367 14.4329 19.367 11.9899C19.367 9.54686 19.356 9.28986 19.313 8.33486C19.304 7.76531 19.1989 7.20137 19.002 6.66686C18.6976 5.88143 18.0771 5.26015 17.292 4.95486C16.7575 4.7556 16.1925 4.65038 15.622 4.64386C14.655 4.58886 14.402 4.58886 11.968 4.58886ZM12.002 16.6249C10.132 16.6261 8.44543 15.5006 7.72888 13.7733C7.01232 12.046 7.40692 10.0572 8.72865 8.73432C10.0504 7.41145 12.0389 7.01513 13.7668 7.73019C15.4947 8.44525 16.6216 10.1308 16.622 12.0009C16.6193 14.5519 14.5531 16.6199 12.002 16.6249ZM12.002 8.99886C10.3452 8.99886 9.00201 10.342 9.00201 11.9989C9.00201 13.6557 10.3452 14.9989 12.002 14.9989C13.6589 14.9989 15.002 13.6557 15.002 11.9989C14.9982 10.3436 13.6573 9.00271 12.002 8.99886ZM16.802 8.28586C16.2074 8.28365 15.7269 7.80045 15.728 7.20587C15.7291 6.61129 16.2114 6.12987 16.806 6.12987C17.4006 6.12987 17.8829 6.61128 17.884 7.20586C17.8843 7.49272 17.7703 7.76788 17.5673 7.97054C17.3642 8.17319 17.0889 8.28666 16.802 8.28586Z" fill="white"/>
</svg>
