<svg width="10" height="12" viewBox="0 0 6 10" fill="none" xmlns="http://www.w3.org/2000/svg">
    <path d="M3.2832 0.908203C3.94401 0.908203 4.33138 1.07682 4.44531 1.41406C5.14258 1.41406 5.49121 1.67839 5.49121 2.20703C5.49121 2.72656 5.03776 3.24609 4.13086 3.76562C3.63867 4.01172 3.1123 4.13477 2.55176 4.13477C2.24642 4.13477 1.89779 4.0778 1.50586 3.96387C1.31445 4.24642 1.14355 4.3877 0.993164 4.3877C0.943034 4.37402 0.91569 4.32617 0.911133 4.24414C0.911133 4.10742 0.968099 3.90007 1.08203 3.62207C0.854167 3.43066 0.740234 3.15723 0.740234 2.80176C0.740234 2.07715 1.25977 1.49382 2.29883 1.05176C2.58594 0.956055 2.91406 0.908203 3.2832 0.908203ZM1.56055 2.69238C1.53776 2.81087 1.54688 2.89518 1.58789 2.94531C2.30339 2.24805 2.9528 1.82878 3.53613 1.6875C2.40137 1.60547 1.74284 1.94043 1.56055 2.69238ZM2.06641 3.45117C2.14844 3.51042 2.38542 3.55827 2.77734 3.59473C3.5931 3.59473 4.27214 3.24609 4.81445 2.54883C4.86914 2.4668 4.89648 2.36198 4.89648 2.23438C4.89648 2.08398 4.82129 2.00879 4.6709 2.00879C4.09668 2.00879 3.25814 2.45312 2.15527 3.3418L2.06641 3.45117ZM2.12793 5.06445C2.40137 5.06445 2.55176 5.53385 2.5791 6.47266C2.5791 8.8151 2.38086 9.98633 1.98438 9.98633C1.68815 9.98633 1.51953 9.42122 1.47852 8.29102C1.47852 7.16992 1.64714 6.13314 1.98438 5.18066C2.01628 5.12598 2.06413 5.08724 2.12793 5.06445Z"
          fill="white"/>
</svg>
