<svg width="1436" height="910" viewBox="0 0 1436 910" fill="none" xmlns="http://www.w3.org/2000/svg">
<path d="M782 515.5L824 424.5L821.5 425.5V414L782 515.5Z" fill="url(#paint0_linear_160_5)"/>
<path d="M553 403L577 405H508L501.5 397L480.5 396V394L483.5 393V391H493.5V372.5H505V369.5H510.5V372.5H536V391H556V395L553 398.5V403Z" fill="#060002"/>
<path d="M493.5 391H483.5V393L480.5 394V396L501.5 397L508 405H577L553 403V398.5L556 395V391H536M493.5 391V372.5H505V369.5H510.5V372.5H536V391M493.5 391H536" stroke="black"/>
<path d="M844 414.5L840.5 411.5V409.5H824L826.5 723L841 730L842.5 838L850.5 839.5L850 748L847.5 748.5V741.5C847.5 741.1 848.833 739.667 849.5 739V626L848 626.5H844.5V624L841 619.5L837.5 619V610C837.5 609.6 836.833 610.833 836.5 611.5V606.5L844.5 599.5L845.5 531L842.5 526.5V487L844 486V414.5Z" fill="black" stroke="black"/>
<path d="M785 653V662.5L783.5 664.5V747.5L826.5 723L824 424.5L782 516L782.5 520L785 521.5V574.5V649L787 649.5V652L785 653Z" fill="url(#paint1_linear_160_5)" stroke="black"/>
<path d="M783.5 747.5L826.5 723L841 730L793 749L783.5 747.5Z" fill="black" stroke="black"/>
<path d="M841 730L793 749L792.5 829.5L842.5 838L841 730Z" fill="#021022" stroke="black"/>
<path d="M782.5 524.5L783.5 561.5V748L792.5 752V830L850.5 839.5L850 748L847.5 748.5V741.5C847.5 741.1 848.833 739.667 849.5 739V626L848 626.5H844.5V624L841 619.5L837.5 619V610C837.5 609.6 836.833 610.833 836.5 611.5V606.5L844.5 599.5L845.5 531L842.5 526.5V487L844 486V414.5L840.5 411.5V407.5H823L780 515V524.5H782.5Z" stroke="black"/>
<path d="M785 662.5L783.5 664L782.5 524.5H780V514L823 407.5H840.5V409.5H824V424L821.5 425.5V414L782 516L782.5 520L785 521.5V574.5V649L787 649.5V652L785 653V662.5Z" fill="#150B30" stroke="black"/>
<path d="M542 376.108L536 372V391L542 390.486V376.108Z" fill="#021022" stroke="black"/>
<path d="M823 427L812 450.5C812.833 528.5 814 685.6 812 690C810 694.4 791.833 706.833 783 712.5V740L825.5 715.5L823 427Z" fill="#1F5493" stroke="black"/>
<path d="M647 538L641.5 532L636 536V571L639 574.5V582L634.5 584.5V629L639 631.5V638.5L636 640.5L634.5 687L638 688V694.5H634.5V709L639.5 706.5V709L634.5 711.5V747.5H638L639.5 752L638 755.5L634.5 763.5V822.5L643 821L686.5 813L727.5 811H754H792L792.5 752.5L783.5 748L783 560.5H763L746 540L725 538V532L723.5 531V515L714.5 505H684.5V521.5L681 524.5V538H669.5V560.5H663.5V552.5L647 538Z" fill="url(#paint2_radial_160_5)"/>
<path d="M641.5 515V532M641.5 532L647 538L663.5 552.5V560.5H669.5V538H681V524.5L684.5 521.5V505H714.5L723.5 515V531L725 532V538L746 540L763 560.5H783L783.5 748L792.5 752.5L792 811H754H727.5L686.5 813L643 821L634.5 822.5V763.5L638 755.5L639.5 752L638 747.5H634.5V711.5L639.5 709V706.5L634.5 709V694.5H638V688L634.5 687L636 640.5L639 638.5V631.5L634.5 629V584.5L639 582V574.5L636 571V536L641.5 532ZM636 536V571L639 574.5V582L634.5 584.5V629L639 631.5V638.5L636 640.5L634.5 687L638 688V694.5H634.5V709M634.5 711.5V747.5H638M638 755.5L634.5 763.5V822.5" stroke="black"/>
<path d="M641.5 515.5L601 444L577 405L576.5 418.5L579.5 484.5L582.5 486.5V492.5H581L581.5 496.5L578 495V566H581.5V571L576.5 570V641C577.833 641.167 580.5 641.6 580.5 642V644.5L576.5 644V671L578.5 672.5V831L634.5 822.5V763.5L638 755.5V747.5H634.5V709V694.5H638V688L634.5 687L636 640.5L639 638.5V631.5L634.5 629V584.5L639 582V574.5L636 571V536L641.5 532.5V515.5Z" fill="url(#paint3_linear_160_5)"/>
<path d="M577 405L601 444L641.5 515.5V532.5L636 536V571L639 574.5V582L634.5 584.5V629L639 631.5V638.5L636 640.5L634.5 687L638 688V694.5H634.5V709V747.5H638V755.5L634.5 763.5V822.5L578.5 831C578.5 831 578.5 723.167 578.5 672.5L576.5 671V644L580.5 644.5C580.5 643.833 580.5 642.4 580.5 642C580.5 641.6 577.833 641.167 576.5 641V570L581.5 571V566H578V495L581.5 496.5L581 492.5H582.5V486.5L579.5 484.5L576.5 418.5L577 405ZM577 405L553 403V398.5L556 395" stroke="black"/>
<path d="M552 402.5L576 404.5L575.5 418L578.5 484L581.5 486V492H580L580.5 496L577 494.5V565.5H580.5V570.5L575.5 569.5V640.5C576.833 640.667 579.5 641.1 579.5 641.5V644L575.5 643.5V670.5L577.5 672V830.5L557 828.5V731.5L565.5 729.5V700.5L560.5 697.5V655L564.5 653L565.5 618L560.5 613.5L561.5 577.5L567 572.5L568 540.5L560.5 535L562 499.5H566.5V492L568 487.5V484L544 457V452.5L499.5 398L479 396.5V393H482.5L555 394.5L552 398V402.5Z" fill="black" stroke="black"/>
<path d="M580.5 644.5V642L616 666V668L580.5 644.5Z" fill="#63ABFF"/>
<path d="M576.5 641C577.833 641.167 580.5 641.6 580.5 642M580.5 642C580.5 642.4 580.5 643.833 580.5 644.5M580.5 642L616 666V668L580.5 644.5M580.5 644.5L576.5 644" stroke="black"/>
<path d="M581.5 571V566L634.5 620V622L581.5 571Z" fill="#3B8EEF"/>
<path d="M578 566H581.5M581.5 566V571M581.5 566L634.5 620V622L581.5 571M581.5 571L576.5 570" stroke="black"/>
<path d="M576.5 570L581.5 571L634.5 622C616.833 606 580.5 573.2 576.5 570Z" fill="black"/>
<path d="M634.5 620V622M634.5 622C616.833 606 580.5 573.2 576.5 570L581.5 571L634.5 622Z" stroke="black"/>
<path d="M582.5 492.5V486.5L635.5 560.5V564.5L582.5 492.5Z" fill="#1F5493"/>
<path d="M579.5 484.5L582.5 486.5M582.5 486.5V492.5M582.5 486.5L635.5 560.5V564.5L582.5 492.5M582.5 492.5H581L581.5 496.5L578 495" stroke="black"/>
<path d="M581 492.5H582.5L635.5 564.5L581.5 496.5L581 492.5Z" fill="black"/>
<path d="M635.5 564.5V560.5M635.5 564.5L581.5 496.5L581 492.5H582.5L635.5 564.5Z" stroke="black"/>
<path d="M556 393.5H484V391H556V393.5Z" fill="#101268" stroke="black"/>
<path d="M493.5 372.5V391H536V372L510.5 372.5V369.5H505V372.5H493.5Z" fill="black" stroke="black"/>
<path d="M479 396.5V393L-1.5 130.5V909L557 828.5V731.5L565.5 729.5V700.5L560.5 697.5V655L564.5 653L565.5 618L560.5 613.5L561.5 577.5L567 572.5L568 540.5L560.5 535L562 499.5H566.5V492L568 487.5V484L544 457V452.5L499.5 398L479 396.5Z" fill="url(#paint4_linear_160_5)" stroke="black"/>
<path d="M844 414.5L840.5 411.5V409.5L1435.5 0V838L850.5 839.5L850 748L847.5 748.5V741.5C847.5 741.1 848.833 739.667 849.5 739V626L848 626.5H844.5V624L841 619.5L837.5 619V610C837.5 609.6 836.833 610.833 836.5 611.5V606.5L844.5 599.5L845.5 531L842.5 526.5V487L844 486V414.5Z" fill="url(#paint5_linear_160_5)"/>
<defs>
<linearGradient id="paint0_linear_160_5" x1="827.5" y1="413" x2="782" y2="512.5" gradientUnits="userSpaceOnUse">
<stop stop-color="#0A223F"/>
<stop offset="1" stop-color="#141551"/>
</linearGradient>
<linearGradient id="paint1_linear_160_5" x1="787.5" y1="613.5" x2="827" y2="613" gradientUnits="userSpaceOnUse">
<stop/>
<stop offset="1" stop-color="#18195C"/>
</linearGradient>
<radialGradient id="paint2_radial_160_5" cx="0" cy="0" r="1" gradientUnits="userSpaceOnUse" gradientTransform="translate(713.5 663.75) rotate(90) scale(158.75 79)">
<stop stop-color="#07001C"/>
<stop offset="1"/>
</radialGradient>
<linearGradient id="paint3_linear_160_5" x1="578.5" y1="616.5" x2="641" y2="616.5" gradientUnits="userSpaceOnUse">
<stop stop-color="#141551"/>
<stop offset="1"/>
</linearGradient>
<linearGradient id="paint4_linear_160_5" x1="568" y1="615" x2="206" y2="579.5" gradientUnits="userSpaceOnUse">
<stop/>
<stop offset="0.0001" stop-color="#090922"/>
<stop offset="1"/>
</linearGradient>
<linearGradient id="paint5_linear_160_5" x1="848.5" y1="623" x2="1268" y2="610.5" gradientUnits="userSpaceOnUse">
<stop stop-color="#02031B"/>
<stop offset="1"/>
</linearGradient>
</defs>
</svg>
