<svg width="297" height="30" viewBox="0 0 297 30" fill="current" xmlns="http://www.w3.org/2000/svg">
    <g filter="url(#filter0_i_158_312)">
        <path d="M0.707031 1.05078H7.35156V29H0.707031V1.05078ZM20.7039 1.05078H38.6336L36.8406 6.99219H21.5125C19.4969 6.99219 17.9617 8.11719 16.907 10.3672C16.2508 11.8203 15.9227 13.4375 15.9227 15.2188C15.9227 17.9844 16.6258 20.1055 18.032 21.582C18.993 22.5664 20.1531 23.0586 21.5125 23.0586H38.6336L36.8406 29H20.7039C16.8836 29 13.8719 27.4062 11.6687 24.2188C9.81719 21.5703 8.89141 18.4297 8.89141 14.7969C8.89141 10.9531 9.91094 7.74219 11.95 5.16406C14.1297 2.44531 17.0477 1.07422 20.7039 1.05078ZM56.5563 19.5078V29H49.9117V19.3672L36.3766 1.05078H44.1109L53.2867 14.1641L62.4625 1.05078H70.1969L56.5563 19.5078ZM99.8547 17.9258V1.05078H106.499V17.9258C106.499 21.7227 104.835 24.7227 101.507 26.9258C98.6711 28.7773 95.3195 29.7031 91.4523 29.7031C87.4445 29.7031 84.1047 28.6602 81.4328 26.5742C79.7453 25.2383 78.5617 23.5977 77.882 21.6523L84.2102 19.9297C84.843 21.7344 86.3664 22.9062 88.7805 23.4453C89.5539 23.6328 90.3625 23.7266 91.2063 23.7266C93.9484 23.7266 96.1633 23.0703 97.8508 21.7578C99.1633 20.7031 99.8313 19.4258 99.8547 17.9258ZM131.77 17.9258V1.05078H138.414V17.9258C138.414 22.6367 136.305 25.9648 132.086 27.9102C129.625 29.0352 126.648 29.5977 123.156 29.5977C117.977 29.5977 114.062 28.2969 111.414 25.6953C109.375 23.6797 108.355 21.0898 108.355 17.9258V2.14062L115.035 0.347656V17.9258C115.035 20.5273 116.219 22.2031 118.586 22.9531C119.828 23.3516 121.457 23.5508 123.473 23.5508C127.855 23.5508 130.492 22.4375 131.383 20.2109C131.641 19.5312 131.77 18.7695 131.77 17.9258ZM150.009 17.9961C146.259 17.9961 143.47 16.8008 141.641 14.4102C140.54 12.9805 139.989 11.3633 139.989 9.55859C139.989 7.12109 140.903 5.09375 142.731 3.47656C144.583 1.85938 147.009 1.05078 150.009 1.05078H168.993L167.2 6.99219H150.079C148.649 6.99219 147.7 7.51953 147.231 8.57422C147.091 8.90234 147.02 9.23047 147.02 9.55859C147.02 10.5664 147.512 11.3047 148.497 11.7734C148.966 11.9844 149.493 12.0898 150.079 12.0898H159.712C163.298 12.0898 166.016 13.2383 167.868 15.5352C169.04 17.0117 169.626 18.6875 169.626 20.5625C169.626 23 168.712 25.0156 166.884 26.6094C165.055 28.2031 162.665 29 159.712 29H139.989L141.782 23.0586H159.641C161.095 23.0586 162.044 22.543 162.489 21.5117C162.63 21.207 162.7 20.8906 162.7 20.5625C162.7 19.5547 162.231 18.8164 161.294 18.3477C160.802 18.1133 160.251 17.9961 159.641 17.9961H150.009ZM169.548 6.99219V1.05078H198.763L196.97 6.99219H186.529V29H179.849V6.99219H169.548ZM200.022 1.05078H206.666V29H200.022V1.05078ZM220.019 1.05078H237.948L236.155 6.99219H220.827C218.812 6.99219 217.277 8.11719 216.222 10.3672C215.566 11.8203 215.238 13.4375 215.238 15.2188C215.238 17.9844 215.941 20.1055 217.347 21.582C218.308 22.5664 219.468 23.0586 220.827 23.0586H237.948L236.155 29H220.019C216.198 29 213.187 27.4062 210.984 24.2188C209.132 21.5703 208.206 18.4297 208.206 14.7969C208.206 10.9531 209.226 7.74219 211.265 5.16406C213.445 2.44531 216.363 1.07422 220.019 1.05078ZM245.711 18.0312V23.0586H266.102L264.309 29H239.066V1.05078H266.102L264.309 6.99219H245.711V12.0898H263.043V18.0312H245.711ZM277.169 17.9961C273.419 17.9961 270.63 16.8008 268.802 14.4102C267.7 12.9805 267.149 11.3633 267.149 9.55859C267.149 7.12109 268.063 5.09375 269.891 3.47656C271.743 1.85938 274.169 1.05078 277.169 1.05078H296.153L294.36 6.99219H277.239C275.809 6.99219 274.86 7.51953 274.391 8.57422C274.251 8.90234 274.18 9.23047 274.18 9.55859C274.18 10.5664 274.673 11.3047 275.657 11.7734C276.126 11.9844 276.653 12.0898 277.239 12.0898H286.872C290.458 12.0898 293.177 13.2383 295.028 15.5352C296.2 17.0117 296.786 18.6875 296.786 20.5625C296.786 23 295.872 25.0156 294.044 26.6094C292.216 28.2031 289.825 29 286.872 29H267.149L268.942 23.0586H286.802C288.255 23.0586 289.204 22.543 289.649 21.5117C289.79 21.207 289.86 20.8906 289.86 20.5625C289.86 19.5547 289.391 18.8164 288.454 18.3477C287.962 18.1133 287.411 17.9961 286.802 17.9961H277.169Z"
              fill="#8364DB"/>
    </g>
    <defs>
        <filter id="filter0_i_158_312" x="0.707031" y="0.347656" width="304.079" height="37.3555"
                filterUnits="userSpaceOnUse" color-interpolation-filters="sRGB">
            <feFlood flood-opacity="0" result="BackgroundImageFix"/>
            <feBlend mode="normal" in="SourceGraphic" in2="BackgroundImageFix" result="shape"/>
            <feColorMatrix in="SourceAlpha" type="matrix" values="0 0 0 0 0 0 0 0 0 0 0 0 0 0 0 0 0 0 127 0"
                           result="hardAlpha"/>
            <feOffset dx="8" dy="18"/>
            <feGaussianBlur stdDeviation="4"/>
            <feComposite in2="hardAlpha" operator="arithmetic" k2="-1" k3="1"/>
            <feColorMatrix type="matrix" values="0 0 0 0 1 0 0 0 0 1 0 0 0 0 1 0 0 0 0.2 0"/>
            <feBlend mode="normal" in2="shape" result="effect1_innerShadow_158_312"/>
        </filter>
    </defs>
</svg>
